<svg xmlns="http://www.w3.org/2000/svg" viewBox="0 0 128 128" role="img" aria-labelledby="title desc">
  <title id="title">BulkStatus icon concept A4</title>
  <desc id="desc">Cascaded prior tabs visible along the top and right side behind a white status checklist page.</desc>
  <defs>
    <filter id="shadow-a4" x="-18%" y="-18%" width="142%" height="150%">
      <feDropShadow dx="0" dy="7" stdDeviation="6" flood-color="#0f172a" flood-opacity=".28"/>
    </filter>
    <linearGradient id="front-a4" x1="15" y1="27" x2="112" y2="118" gradientUnits="userSpaceOnUse">
      <stop offset="0" stop-color="#ffffff"/>
      <stop offset="1" stop-color="#eef3f8"/>
    </linearGradient>
    <linearGradient id="back-a4" x1="27" y1="8" x2="124" y2="99" gradientUnits="userSpaceOnUse">
      <stop offset="0" stop-color="#617486"/>
      <stop offset="1" stop-color="#172333"/>
    </linearGradient>
    <linearGradient id="mid-a4" x1="20" y1="16" x2="120" y2="109" gradientUnits="userSpaceOnUse">
      <stop offset="0" stop-color="#d7e1eb"/>
      <stop offset="1" stop-color="#415369"/>
    </linearGradient>
    <linearGradient id="bar-a4" x1="53" y1="0" x2="107" y2="0" gradientUnits="userSpaceOnUse">
      <stop offset="0" stop-color="#273244"/>
      <stop offset="1" stop-color="#172131"/>
    </linearGradient>
    <linearGradient id="gloss-green-a4" x1="24" y1="43" x2="46" y2="63" gradientUnits="userSpaceOnUse">
      <stop offset="0" stop-color="#bbf7d0" stop-opacity=".95"/>
      <stop offset=".55" stop-color="#22c55e" stop-opacity=".55"/>
      <stop offset="1" stop-color="#16a34a" stop-opacity="0"/>
    </linearGradient>
    <linearGradient id="gloss-amber-a4" x1="24" y1="65" x2="46" y2="85" gradientUnits="userSpaceOnUse">
      <stop offset="0" stop-color="#fde68a" stop-opacity=".95"/>
      <stop offset=".55" stop-color="#f59e0b" stop-opacity=".55"/>
      <stop offset="1" stop-color="#d97706" stop-opacity="0"/>
    </linearGradient>
    <linearGradient id="gloss-red-a4" x1="24" y1="87" x2="46" y2="107" gradientUnits="userSpaceOnUse">
      <stop offset="0" stop-color="#fecaca" stop-opacity=".95"/>
      <stop offset=".55" stop-color="#ef4444" stop-opacity=".55"/>
      <stop offset="1" stop-color="#dc2626" stop-opacity="0"/>
    </linearGradient>
  </defs>

  <g filter="url(#shadow-a4)">
    <rect x="27" y="8" width="92" height="91" rx="18" fill="url(#back-a4)" stroke="#101827" stroke-width="1.5"/>
    <rect x="36" y="17" width="74" height="73" rx="13" fill="#101827" opacity=".26"/>

    <rect x="18" y="17" width="100" height="94" rx="19" fill="url(#mid-a4)" stroke="#718499" stroke-width="1.35"/>
    <rect x="27" y="26" width="82" height="76" rx="14" fill="#102033" opacity=".2"/>

    <rect x="7" y="28" width="108" height="89" rx="20" fill="url(#front-a4)" stroke="#c8d3df" stroke-width="1.7"/>
  </g>

  <g>
    <circle cx="34" cy="54" r="10" fill="#22c55e" stroke="#12833d" stroke-width="1.4"/>
    <path d="m29.5 54.2 3.1 3.3 6.4-7" fill="none" stroke="#ffffff" stroke-linecap="round" stroke-linejoin="round" stroke-width="3"/>
    <path d="M26 50c2.4-5.2 13.1-6.1 16.5-.3-5.7-1.6-10.6-.9-16.5.3Z" fill="url(#gloss-green-a4)"/>
    <rect x="53" y="47.5" width="52" height="13" rx="6.5" fill="url(#bar-a4)"/>

    <circle cx="34" cy="76" r="10" fill="#f59e0b" stroke="#bd6f07" stroke-width="1.4"/>
    <path d="M34 70.4v7.3" fill="none" stroke="#ffffff" stroke-linecap="round" stroke-width="3"/>
    <circle cx="34" cy="81.7" r="1.6" fill="#ffffff"/>
    <path d="M26 72c2.4-5.2 13.1-6.1 16.5-.3-5.7-1.6-10.6-.9-16.5.3Z" fill="url(#gloss-amber-a4)"/>
    <rect x="53" y="69.5" width="52" height="13" rx="6.5" fill="url(#bar-a4)"/>

    <circle cx="34" cy="98" r="10" fill="#ef4444" stroke="#b91c1c" stroke-width="1.4"/>
    <path d="m30.2 94.2 7.6 7.6M37.8 94.2l-7.6 7.6" fill="none" stroke="#ffffff" stroke-linecap="round" stroke-width="3"/>
    <path d="M26 94c2.4-5.2 13.1-6.1 16.5-.3-5.7-1.6-10.6-.9-16.5.3Z" fill="url(#gloss-red-a4)"/>
    <rect x="53" y="91.5" width="52" height="13" rx="6.5" fill="url(#bar-a4)"/>
  </g>
</svg>
