<svg xmlns="http://www.w3.org/2000/svg" viewBox="0 0 128 128" role="img" aria-labelledby="title desc">
  <title id="title">BulkStatus icon concept D</title>
  <desc id="desc">A polished layered stack with a small status list badge.</desc>
  <defs>
    <filter id="shadow-d" x="-20%" y="-20%" width="150%" height="150%">
      <feDropShadow dx="0" dy="8" stdDeviation="7" flood-color="#0f172a" flood-opacity=".25"/>
    </filter>
    <linearGradient id="top-d" x1="37" y1="16" x2="92" y2="68" gradientUnits="userSpaceOnUse">
      <stop offset="0" stop-color="#6d7f92"/>
      <stop offset="1" stop-color="#263446"/>
    </linearGradient>
    <linearGradient id="front-d" x1="32" y1="46" x2="93" y2="105" gradientUnits="userSpaceOnUse">
      <stop offset="0" stop-color="#ffffff"/>
      <stop offset="1" stop-color="#dbe5ee"/>
    </linearGradient>
  </defs>

  <g filter="url(#shadow-d)">
    <path d="M23 37 64 17l42 20-42 21-41-21Z" fill="url(#top-d)" stroke="#152236" stroke-width="1.5"/>
    <path d="M25 59 64 40l40 19-40 20-39-20Z" fill="#f7fafc" stroke="#c7d2de" stroke-width="1.5"/>
    <path d="M24 80 64 60l41 20-41 20-40-20Z" fill="url(#front-d)" stroke="#aebdca" stroke-width="1.5"/>
  </g>

  <g transform="translate(61 66)">
    <rect x="0" y="0" width="45" height="38" rx="12" fill="#f8fafc" stroke="#c8d3df" stroke-width="1.5"/>
    <circle cx="13" cy="12" r="5" fill="#22c55e"/>
    <rect x="23" y="8" width="13" height="8" rx="4" fill="#1e293b"/>
    <circle cx="13" cy="24" r="5" fill="#f59e0b"/>
    <rect x="23" y="20" width="13" height="8" rx="4" fill="#1e293b"/>
    <circle cx="13" cy="36" r="5" fill="#ef4444" transform="translate(0 -2)"/>
    <rect x="23" y="30" width="13" height="7" rx="3.5" fill="#1e293b"/>
  </g>
</svg>
